<svg width="167" height="40" viewBox="0 0 167 40" fill="none" xmlns="http://www.w3.org/2000/svg">
<path d="M31.7411 21.4536C31.7411 23.195 31.3813 24.8409 30.7341 26.3417C29.7634 28.5917 28.1344 30.5163 26.087 31.8696C24.0394 33.2229 21.5903 34.0101 18.9235 34.0129C17.1467 34.0129 15.4675 33.6603 13.9361 33.026C11.6404 32.0746 9.67659 30.478 8.29581 28.4714C6.91503 26.4647 6.11167 24.0644 6.10889 21.4509C6.10889 19.7094 6.46873 18.0637 7.11588 16.5627C8.0866 14.3129 9.71564 12.3882 11.7631 11.0349C13.8105 9.68168 16.2597 8.89434 18.9264 8.8916V2.90448C16.3211 2.90448 13.8245 3.42391 11.5595 4.36436C8.15913 5.77503 5.27484 8.1234 3.23576 11.0814C1.19388 14.0367 0 17.6234 0 21.4536C0 24.007 0.529995 26.4539 1.48956 28.6737C2.92893 32.0063 5.32505 34.833 8.34323 36.8314C11.3614 38.8299 15.0184 40.0027 18.9264 40C21.5317 40 24.0283 39.4806 26.2934 38.5401C29.6936 37.1294 32.578 34.7811 34.6171 31.8231C36.6562 28.865 37.8527 25.281 37.85 21.4509H31.7411V21.4536Z" fill="#1C1C1C"/>
<path d="M15.7289 29.6139C18.5589 29.6139 20.8531 27.3654 20.8531 24.5919C20.8531 21.8183 18.5589 19.5697 15.7289 19.5697C12.8988 19.5697 10.6046 21.8183 10.6046 24.5919C10.6046 27.3654 12.8988 29.6139 15.7289 29.6139Z" fill="#1C1C1C"/>
<path fill-rule="evenodd" clip-rule="evenodd" d="M20.9925 4.88232C21.3896 4.95877 21.7657 5.09209 22.1127 5.27344C22.2661 5.35429 22.4152 5.44495 22.5564 5.54439C22.9513 5.82077 23.2937 6.16494 23.5692 6.56154C23.6679 6.70354 23.7583 6.85325 23.8387 7.00728C24.0193 7.35578 24.1518 7.73382 24.2282 8.13257C24.2314 8.14897 24.2336 8.16537 24.237 8.18172C24.2639 8.33144 24.4773 8.33144 24.5043 8.18172C24.5076 8.16537 24.5097 8.14897 24.513 8.13257C24.5894 7.73379 24.7218 7.35578 24.9025 7.00728C24.983 6.85325 25.0729 6.70358 25.172 6.56154C25.4475 6.16489 25.7899 5.82081 26.1848 5.54439C26.3261 5.44495 26.475 5.35429 26.6284 5.27344C26.9754 5.09209 27.3516 4.95877 27.7487 4.88232C27.7647 4.87904 27.7811 4.87685 27.7974 4.87355C27.9465 4.84627 27.9465 4.63212 27.7974 4.60479C27.7811 4.60154 27.7647 4.59935 27.7487 4.59607C27.3516 4.51957 26.9754 4.38631 26.6284 4.20495C26.475 4.12409 26.3261 4.03344 26.1848 3.93399C25.7899 3.65758 25.4475 3.31345 25.172 2.91687C25.0729 2.77485 24.983 2.62514 24.9025 2.47111C24.7218 2.12255 24.5894 1.74457 24.513 1.34578C24.5097 1.32942 24.5076 1.31302 24.5043 1.29662C24.4773 1.14695 24.2639 1.14695 24.237 1.29662C24.2336 1.31302 24.2314 1.32942 24.2282 1.34578C24.1518 1.74459 24.0193 2.12255 23.8387 2.47111C23.7583 2.62514 23.6679 2.77481 23.5692 2.91687C23.2937 3.31345 22.9513 3.65758 22.5564 3.93399C22.4152 4.03344 22.2661 4.12409 22.1127 4.20495C21.7657 4.38631 21.3896 4.51962 20.9925 4.59607C20.9764 4.59935 20.9596 4.60154 20.9434 4.60479C20.7947 4.63212 20.7947 4.84627 20.9434 4.87355C20.9596 4.87685 20.9764 4.87904 20.9925 4.88232Z" fill="#BB8C32"/>
<path fill-rule="evenodd" clip-rule="evenodd" d="M32.7342 17.8697C32.9989 17.9207 33.2498 18.0096 33.481 18.1306C33.5833 18.1844 33.6827 18.2449 33.7769 18.3111C34.0401 18.4954 34.2684 18.725 34.4519 18.9893C34.5178 19.084 34.578 19.1837 34.6316 19.2864C34.7522 19.5187 34.8405 19.7707 34.8912 20.0367C34.8936 20.0476 34.8949 20.0584 34.8972 20.0694C34.9153 20.1693 35.0574 20.1693 35.0755 20.0694C35.0777 20.0584 35.0791 20.0476 35.0813 20.0367C35.132 19.7707 35.2204 19.5187 35.3409 19.2864C35.3946 19.1837 35.4545 19.084 35.5207 18.9893C35.7043 18.7249 35.9324 18.4954 36.1958 18.3111C36.2898 18.2449 36.3894 18.1844 36.4914 18.1306C36.7229 18.0096 36.9736 17.9207 37.2382 17.8697C37.2491 17.8676 37.2599 17.8661 37.2708 17.864C37.3703 17.8457 37.3703 17.703 37.2708 17.6849C37.2599 17.6827 37.2491 17.6811 37.2382 17.679C36.9736 17.6279 36.7229 17.5391 36.4914 17.4181C36.3894 17.3643 36.2898 17.3039 36.1958 17.2376C35.9324 17.0533 35.7043 16.824 35.5207 16.5594C35.4545 16.4647 35.3946 16.365 35.3409 16.2623C35.2204 16.0299 35.132 15.778 35.0813 15.5121C35.0791 15.5011 35.0777 15.4903 35.0755 15.4794C35.0574 15.3794 34.9153 15.3794 34.8972 15.4794C34.8949 15.4903 34.8936 15.5011 34.8912 15.5121C34.8405 15.778 34.7522 16.0299 34.6316 16.2623C34.578 16.365 34.5178 16.4647 34.4519 16.5594C34.2684 16.824 34.0401 17.0533 33.7769 17.2376C33.6827 17.3039 33.5833 17.3643 33.481 17.4181C33.2498 17.5391 32.9989 17.628 32.7342 17.679C32.7234 17.6811 32.7124 17.6827 32.7014 17.6849C32.6025 17.703 32.6025 17.8457 32.7014 17.864C32.7124 17.8661 32.7234 17.8676 32.7342 17.8697Z" fill="#BB8C32"/>
<path fill-rule="evenodd" clip-rule="evenodd" d="M22.2258 14.4106C22.7551 14.5124 23.2567 14.6901 23.7195 14.932C23.9237 15.0397 24.1227 15.1606 24.311 15.2931C24.8375 15.6617 25.294 16.1206 25.6612 16.6494C25.7928 16.8389 25.9134 17.0383 26.0205 17.2437C26.2616 17.7084 26.4381 18.2126 26.5399 18.7441C26.5444 18.766 26.547 18.7879 26.5515 18.8097C26.5877 19.0093 26.8721 19.0093 26.9081 18.8097C26.9126 18.7879 26.9154 18.766 26.9199 18.7441C27.0215 18.2124 27.198 17.7084 27.4392 17.2437C27.5464 17.0383 27.6663 16.8389 27.7984 16.6494C28.1656 16.1206 28.6223 15.6619 29.1488 15.2931C29.3371 15.1606 29.5359 15.0397 29.7404 14.932C30.2029 14.6901 30.7045 14.5124 31.2339 14.4106C31.2555 14.4061 31.2772 14.4031 31.2989 14.3989C31.4976 14.3624 31.4976 14.0768 31.2989 14.0405C31.2772 14.0361 31.2555 14.0332 31.2339 14.0287C30.7045 13.9268 30.2029 13.7491 29.7404 13.5074C29.5359 13.3995 29.3371 13.2787 29.1488 13.1461C28.6223 12.7774 28.1656 12.3186 27.7984 11.7898C27.6663 11.6006 27.5464 11.4009 27.4392 11.1955C27.198 10.7308 27.0215 10.2267 26.9199 9.69506C26.9154 9.67324 26.9126 9.65144 26.9081 9.62953C26.8721 9.42998 26.5877 9.42998 26.5515 9.62953C26.547 9.65144 26.5444 9.67324 26.5399 9.69506C26.4381 10.2269 26.2616 10.7308 26.0205 11.1955C25.9134 11.4009 25.7928 11.6004 25.6612 11.7898C25.294 12.3186 24.8375 12.7774 24.311 13.1461C24.1227 13.2787 23.9237 13.3995 23.7195 13.5074C23.2567 13.7491 22.7551 13.9268 22.2258 14.0287C22.2043 14.0332 22.182 14.0361 22.1604 14.0405C21.962 14.0768 21.962 14.3624 22.1604 14.3989C22.182 14.4031 22.2043 14.4061 22.2258 14.4106Z" fill="#BB8C32"/>
<path d="M28.2312 7.39664C28.6777 7.48217 29.1116 7.6036 29.5278 7.75814C29.7777 7.85196 30.0223 7.95546 30.2586 8.07136C31.9014 8.87316 33.2309 10.2088 34.0291 11.8591C34.1444 12.0964 34.2476 12.342 34.3409 12.5932C34.4945 13.0112 34.6155 13.4473 34.7009 13.8957C34.7075 13.9288 34.713 13.9606 34.7186 13.9937C34.7721 14.2946 35.2006 14.2946 35.2542 13.9937C35.2598 13.9606 35.2653 13.9288 35.272 13.8957C35.3572 13.4473 35.4781 13.0112 35.6321 12.5932C35.7252 12.3421 35.8284 12.0964 35.9436 11.8591C36.7418 10.2087 38.0716 8.87303 39.7143 8.07136C39.9505 7.95546 40.1949 7.85196 40.4451 7.75814C40.8611 7.6036 41.2951 7.48217 41.7415 7.39664C41.7746 7.38973 41.806 7.38421 41.8391 7.37868C42.1387 7.3249 42.1387 6.89438 41.8391 6.84059C41.806 6.83506 41.7746 6.82954 41.7415 6.82263C41.2951 6.73708 40.8611 6.61567 40.4451 6.46111C40.1949 6.3673 39.9505 6.26381 39.7143 6.1479C38.0713 5.34611 36.7418 4.01044 35.9436 2.36017C35.8284 2.12286 35.7252 1.87724 35.6321 1.62611C35.4781 1.20802 35.3572 0.771984 35.272 0.323544C35.2653 0.29045 35.2598 0.258693 35.2542 0.225597C35.2006 -0.0751991 34.7721 -0.0751991 34.7186 0.225597C34.713 0.258693 34.7075 0.29045 34.7009 0.323544C34.6155 0.771984 34.4945 1.20802 34.3409 1.62611C34.2476 1.87721 34.1444 2.12286 34.0291 2.36017C33.2309 4.01056 31.9014 5.34624 30.2586 6.1479C30.0223 6.26381 29.7777 6.3673 29.5278 6.46111C29.1116 6.61567 28.6777 6.73708 28.2312 6.82263C28.1982 6.82954 28.1666 6.83506 28.1337 6.84059C27.8343 6.89437 27.8343 7.32487 28.1337 7.37868C28.1666 7.38421 28.1982 7.38973 28.2312 7.39664Z" fill="#BB8C32"/>
<path d="M56.1616 33.36C54.4183 33.36 52.9186 32.996 51.6624 32.2681C50.4319 31.5402 49.4064 30.3981 48.5861 28.8419L52.2008 26.4323C52.5597 27.11 53.0468 27.6371 53.6621 28.0136C54.2773 28.3901 54.9311 28.5784 55.6233 28.5784C56.7256 28.5784 57.546 28.2521 58.0844 27.5994C58.6484 26.9468 58.9304 25.7797 58.9304 24.0979V8.36H64.5832V24.5498C64.5832 26.1562 64.2884 27.6371 63.6987 28.9925C63.1091 30.3228 62.1862 31.3896 60.93 32.1928C59.6995 32.9709 58.11 33.36 56.1616 33.36ZM69.6127 32.9082V8.36H75.2656V32.9082H69.6127ZM80.41 32.9082V8.36H96.2149V13.0287H86.0628V18.7139H94.7536V23.3826H86.0628V32.9082H80.41ZM99.807 32.9082V8.36H115.612V13.0287H105.46V18.7139H114.151V23.3826H105.46V32.9082H99.807ZM122.985 32.9082V24.1732L115.448 8.36H121.486L123.716 14.0076C124.049 14.9363 124.383 15.8399 124.716 16.7184C125.049 17.5718 125.395 18.4755 125.754 19.4293H125.908C126.292 18.4755 126.651 17.5718 126.985 16.7184C127.344 15.8399 127.69 14.9363 128.023 14.0076L130.253 8.36H136.175L128.638 24.1732V32.9082H122.985Z" fill="#1C1C1C"/>
<path d="M136.175 33.36L144.236 8.36H151.191L159.291 33.36H153.127L149.768 20.7066C149.4 19.4541 149.044 18.1248 148.702 16.7189C148.359 15.313 148.017 13.9582 147.674 12.6545H147.516C147.226 13.9582 146.91 15.313 146.568 16.7189C146.225 18.1248 145.87 19.4541 145.501 20.7066L142.103 33.36H136.175ZM141.47 27.4167V23.0072H153.878V27.4167H141.47ZM160.921 33.36V8.36H166.73V33.36H160.921Z" fill="#9E7B19"/>
</svg>
